<svg width="148" height="70" viewBox="0 0 148 70" fill="none" xmlns="http://www.w3.org/2000/svg">
<g clip-path="url(#clip0_531_10025)">
<path d="M7.94838 65.2949L4.11133 10.974L51.8002 7.68183L85.7855 10.974L143.341 4.38965V61.4542L96.2002 65.2949L66.0523 61.4542L7.94838 65.2949Z" fill="#B1EE00"/>
<path fill-rule="evenodd" clip-rule="evenodd" d="M0.0126953 7.40687L51.8534 3.82805L85.7521 7.11187L147.178 0.0847168V64.9948L96.1125 69.1555L65.9353 65.3111L4.39022 69.3792L0.0126953 7.40687ZM66.0522 61.4541L96.2002 65.2948L143.341 61.4541V4.38957L85.7854 10.9739L51.8002 7.68172L4.11127 10.9739L7.94832 65.2948L66.0522 61.4541Z" fill="black"/>
<path d="M117.029 50.343V23.594C123.059 23.9232 126.211 22.3595 127.033 21.5364V29.3553H135.529L132.103 37.86H127.033V50.343H117.029Z" fill="black"/>
<path d="M102.229 50.48V33.7449C102.686 34.2936 104.504 35.391 108.122 35.391C111.74 35.391 113.375 34.2936 113.741 33.7449V50.48H102.229Z" fill="black"/>
<path d="M68.2443 37.4322L67.6963 27.8464C71.2594 22.8 78.2613 22.811 80.7207 25.3991C83.5094 28.3341 84.0965 35.3779 84.0965 41.3944C84.0965 46.2078 85.7601 47.4111 86.5918 47.4111V26.7199C93.1675 26.8373 97.747 24.7143 99.2147 23.6382L98.7744 37.4322C98.7744 40.5141 96.8664 52.4004 86.0046 52.4004C76.3173 52.4004 74.7026 43.1556 73.5286 39.927C72.5892 37.3444 71.8074 35.8025 68.2443 37.4322Z" fill="black"/>
<path d="M107.711 33.1963C111.343 33.1963 114.288 30.6168 114.288 27.4349C114.288 24.253 111.343 21.6736 107.711 21.6736C104.078 21.6736 101.133 24.253 101.133 27.4349C101.133 30.6168 104.078 33.1963 107.711 33.1963Z" fill="black"/>
<path d="M17.8145 50.4799V19.2043C21.0136 20.3607 24.5046 20.4274 27.7455 19.3939L28.3401 19.2043V29.0736H33.6061V19.2043C36.6907 20.359 40.0751 20.4329 43.2071 19.414L43.8517 19.2043V50.4799H33.6061V37.9699H28.3401V50.4799H17.8145Z" fill="black"/>
<path fill-rule="evenodd" clip-rule="evenodd" d="M46.3433 35.2064V32.8538C46.3433 28.8915 49.4702 23.3196 58.2403 23.3196C67.0108 23.3196 70.0507 28.7677 70.0507 32.8538L70.2646 34.6333C70.8333 39.3681 72.0487 44.0022 73.8765 48.4059L74.8219 50.684H65.8534C64.3061 50.684 62.97 49.5992 62.6507 48.0837C61.9196 49.157 59.4165 51.3033 55.2507 51.3033C44.5514 51.3033 44.981 44.7581 45.0742 43.3399C45.0802 43.2474 45.085 43.1766 45.085 43.1311C45.085 41.15 45.6081 35.6652 53.0329 35.6652C59.1461 35.6652 60.0274 34.8021 60.9402 33.9078C61.0423 33.8077 61.1448 33.7073 61.2554 33.6076C61.2554 32.3694 61.2554 29.8821 58.2403 29.8821C56.845 29.8821 54.4034 30.625 54.4034 32.8538V33.6076L50.3734 34.4634L46.3433 35.2064ZM59.4739 40.9022C58.6932 41.2785 56.4858 42.0318 53.8991 42.0318C50.6657 42.0318 51.4464 45.1122 54.345 45.1122C57.2439 45.1122 59.4739 43.3666 59.4739 42.3396V40.9022Z" fill="black"/>
</g>
<defs>
<clipPath id="clip0_531_10025">
<rect width="148" height="70" fill="white"/>
</clipPath>
</defs>
</svg>
